<?xml version="1.0" encoding="utf-8" ?>
<svg xmlns="http://www.w3.org/2000/svg" xmlns:xlink="http://www.w3.org/1999/xlink" width="558" height="165">
	<path d="M0 -0L557.523 0C558.052 0.752035 558.003 1.28131 558.005 2.15653L558.052 122.238L558.025 153.108L558.01 160.748C558.008 161.769 558.181 163.198 557.982 164.172C557.923 164.459 557.707 164.774 557.523 165L-0 165L0 -0Z"/>
	<path fill="#FEFEFE" d="M218.002 32.3191C219.069 32.7122 220.468 34.4848 221.316 35.3298L229.544 43.535L214.818 58.3117L205.169 68.092C203.086 70.1941 200.219 73.6843 197.434 74.7808C195.593 75.5057 193.554 75.6421 191.708 74.8605C188.344 73.4365 185.54 69.9239 183.002 67.3762L173.041 57.3863C171.966 56.3119 170.547 54.4349 169.193 53.882L169.046 53.8255C168.874 52.6467 160.497 44.8393 159.102 43.5937L170.445 32.3624L194.372 56.4036L210.743 40.0232C213.017 37.7498 216.393 35.0749 218.002 32.3191Z"/>
	<path fill="#FEFEFE" d="M231.351 45.6592C232.529 46.1744 233.897 47.9248 234.83 48.8563L242.787 56.8238L218.834 80.8145L242.896 104.805L236.62 111.163C235.489 112.294 234.341 113.703 232.953 114.491C232.806 115.057 232.056 115.622 231.639 116.032C225.627 110.678 220.079 104.588 214.37 98.8909L206.248 90.7712C204.694 89.2126 202.995 87.6779 201.615 85.9607C200.79 84.9342 200.019 83.5424 199.801 82.2277C199.503 80.4333 199.898 78.2775 200.86 76.7245C202.341 74.3317 205.066 72.1223 207.062 70.1264L223.602 53.6385C226.058 51.1983 229.348 48.5629 231.302 45.7309L231.351 45.6592Z"/>
	<path fill="#FEFEFE" d="M157.19 45.607L177.122 65.5979L184.316 72.7764C185.761 74.2233 187.753 75.9358 188.477 77.8758C189.19 79.7836 189.207 82.3008 188.326 84.147C187.836 85.175 187.076 86.0809 186.309 86.9152C183.584 89.8814 158.102 115.587 157.074 115.939L156.024 114.993L145.913 104.833L169.894 80.8141L145.923 56.8381L157.19 45.607Z"/>
	<path fill="#FEFEFE" d="M192.376 86.4473C193.136 86.303 193.929 86.2557 194.702 86.2576C195.993 86.2608 197.21 86.5122 198.289 87.2447C202.268 89.947 205.765 94.2262 209.185 97.6472L229.647 118.164L218.444 129.433L202.821 113.771L198.137 109.097C197.173 108.138 196.249 107.06 195.074 106.358L194.999 106.314L194.782 105.666L194.235 105.556L170.426 129.416L159.106 118.153L178.607 98.5979C182.034 95.171 185.487 91.1109 189.251 88.0861C190.209 87.3167 191.219 86.8416 192.376 86.4473Z"/>
	<path fill="#FEFEFE" d="M299.034 36.1736L323.49 36.1698L323.478 104.008L341.472 104.018L341.499 119.843C341.496 121.47 341.856 124.069 341.025 125.497L299.429 125.47L299.405 62.4087L299.43 46.1046C299.44 43.262 299.638 40.2669 299.422 37.4381C299.389 37.0018 299.222 36.5647 299.034 36.1736Z"/>
	<path fill="#FEFEFE" d="M249.12 36.1885L294.264 36.1904L294.25 57.1372L273.577 57.1615L273.512 70.2161L292.152 70.2118L292.113 90.3661L273.567 90.3796C273.527 92.5579 273.033 102.716 273.823 103.942L275.935 104.013L294.266 104.026L294.25 125.494L249.536 125.486L249.549 66.6359L249.556 47.2637C249.554 44.0246 249.726 40.6627 249.531 37.4381C249.505 37.0119 249.313 36.5627 249.12 36.1885Z"/>
	<path fill="#FEFEFE" d="M366.878 36.1466L396.684 36.1563L415.499 125.503L390.615 125.489C390.297 123.566 390.294 120.529 389.236 118.926L389.192 118.86C389.283 118.717 389.371 118.562 389.423 118.399C389.652 117.684 389.188 114.852 388.856 114.147L372.729 114.132C372.266 114.8 372.196 116.284 372.058 117.114L370.647 125.508L345.848 125.487C346.948 119.333 348.771 113.276 350.164 107.178L363.393 51.7313L366.029 40.9877C366.38 39.5524 367.231 37.6647 366.897 36.2224L366.878 36.1466Z"/>
	<path d="M380.815 57.995C381.111 58.425 381.577 58.9917 381.684 59.5089C382.448 63.209 382.363 67.4317 382.803 71.2218L385.879 94.9775L380.015 95.0182L375.972 95.0245L380.416 66.0616C380.663 64.0148 381.253 61.7988 381.264 59.7649C381.267 59.162 381.069 58.5376 380.815 57.995Z"/>
	<path fill="#FEFEFE" d="M97.2748 36.1478L126.715 36.1672L145.471 125.501L120.601 125.488L119.526 118.415L118.984 114.285C118.117 113.767 104.848 114.142 102.695 114.146L100.647 125.508L75.8355 125.496L97.2748 36.1478Z"/>
	<path d="M111.543 57.5106L115.876 94.9747L110.483 95.0182L105.968 95.0244L111.543 57.5106Z"/>
	<path fill="#FEFEFE" d="M420.233 36.2017L438.321 36.1607C446.547 36.1862 454.708 36.0734 462.593 38.782C468.624 40.8539 474.194 46.0434 476.943 51.7965C480.191 58.5938 480.936 68.2985 478.451 75.4219C476.276 81.6589 471.88 85.4719 466.083 88.2728L483.889 125.387C482.432 125.853 479.611 125.49 477.968 125.493L460.936 125.507L458.011 125.506L444.443 88.6342L444.631 125.517L420.659 125.473L420.611 102.052L420.608 57.4157L420.63 43.4337C420.642 41.4391 421.126 37.9837 420.233 36.2017Z"/>
	<path d="M444.321 56.2555C445.956 56.3107 447.678 56.3405 449.277 56.6951C451.611 57.213 453.357 58.4969 454.63 60.4999C456.247 63.0464 456.176 66.9795 455.525 69.8391C455.138 71.5399 453.928 73.7927 452.42 74.74L452.293 75.0624C450.206 76.8445 447.802 77.5401 445.065 77.5248C444.316 76.6133 444.74 63.1158 444.757 61.1183C444.769 59.7201 445.1 57.4501 444.321 56.2555Z"/>
</svg>
