<svg width="248" height="39" viewBox="0 0 248 39" fill="none" xmlns="http://www.w3.org/2000/svg">
<path d="M76.0103 19.3681C76.0103 19.0367 75.7417 18.7681 75.4103 18.7681H59.4012C59.0698 18.7681 58.8012 19.0367 58.8012 19.3681V20.5063C58.8012 20.8377 59.0698 21.1063 59.4012 21.1063H70.7257C71.0571 21.1063 71.3257 21.3749 71.3257 21.7063V28.2937C71.3257 28.6251 71.0571 28.8937 70.7257 28.8937H59.4012C59.0698 28.8937 58.8012 29.1623 58.8012 29.4937V30.6126C58.8012 30.9439 59.0698 31.2126 59.4012 31.2126H70.7257C71.0571 31.2126 71.3257 31.4812 71.3257 31.8126V38.4C71.3257 38.7314 71.0571 39 70.7257 39H51.6C51.2686 39 51 38.7314 51 38.4V11.6C51 11.2686 51.2686 11 51.6 11H90.4126C90.744 11 91.0126 11.2686 91.0126 11.6V18.1681C91.0126 18.4995 90.744 18.7681 90.4126 18.7681H84.4115C84.0802 18.7681 83.8115 19.0367 83.8115 19.3681V38.4C83.8115 38.7314 83.5429 39 83.2115 39H76.6103C76.2789 39 76.0103 38.7314 76.0103 38.4V19.3681Z" fill="#110E14"/>
<path d="M108.337 21.1063C108.669 21.1063 108.937 20.8377 108.937 20.5063V11.6C108.937 11.2686 109.206 11 109.537 11H116.119C116.45 11 116.719 11.2686 116.719 11.6V38.4C116.719 38.7314 116.45 39 116.119 39H109.537C109.206 39 108.937 38.7314 108.937 38.4V29.4937C108.937 29.1623 108.669 28.8937 108.337 28.8937H101.194C100.863 28.8937 100.594 29.1623 100.594 29.4937V38.4C100.594 38.7314 100.325 39 99.994 39H93.3928C93.0614 39 92.7928 38.7314 92.7928 38.4V11.6C92.7928 11.2686 93.0614 11 93.3928 11H99.994C100.325 11 100.594 11.2686 100.594 11.6V20.5063C100.594 20.8377 100.863 21.1063 101.194 21.1063H108.337Z" fill="#110E14"/>
<path d="M118.48 11.6C118.48 11.2686 118.748 11 119.08 11H138.206C138.537 11 138.806 11.2686 138.806 11.6V18.1681C138.806 18.4995 138.537 18.7681 138.206 18.7681H126.881C126.55 18.7681 126.281 19.0367 126.281 19.3681V20.5063C126.281 20.8377 126.55 21.1063 126.881 21.1063H138.206C138.537 21.1063 138.806 21.3749 138.806 21.7063V28.2937C138.806 28.6251 138.537 28.8937 138.206 28.8937H126.881C126.55 28.8937 126.281 29.1623 126.281 29.4937V30.6126C126.281 30.9439 126.55 31.2126 126.881 31.2126H138.206C138.537 31.2126 138.806 31.4812 138.806 31.8126V38.4C138.806 38.7314 138.537 39 138.206 39H119.08C118.748 39 118.48 38.7314 118.48 38.4V11.6Z" fill="#110E14"/>
<path d="M161.124 14.0918C163.138 16.1143 164.144 18.5556 164.144 21.4155C164.144 23.5024 163.57 25.4155 162.421 27.1546C161.652 28.3106 160.714 29.2641 159.606 30.0151C159.122 30.3426 159.243 31.1254 159.826 31.1661C160.27 31.1971 160.735 31.2126 161.221 31.2126H162.963C163.295 31.2126 163.563 31.4812 163.563 31.8126V38.4C163.563 38.7314 163.295 39 162.963 39H161.221C155.736 39 151.626 37.5314 148.89 34.5942C148.709 34.3999 148.368 34.5243 148.368 34.7903V38.4C148.368 38.7314 148.099 39 147.768 39H141.166C140.835 39 140.566 38.7314 140.566 38.4V11.6C140.566 11.2686 140.835 11 141.166 11H153.807C156.672 11.0258 159.111 12.0564 161.124 14.0918ZM148.368 23.1343C148.368 23.4657 148.636 23.7343 148.968 23.7343H153.11C153.639 23.7343 154.091 23.5475 154.465 23.1739C154.84 22.8003 155.027 22.3494 155.027 21.8213C155.027 21.2931 154.84 20.8422 154.465 20.4686C154.091 20.095 153.639 19.9082 153.11 19.9082H148.968C148.636 19.9082 148.368 20.1768 148.368 20.5082V23.1343Z" fill="#110E14"/>
<path d="M187.7 18.7737C187.842 19.3947 188.726 19.3955 188.87 18.7748L190.556 11.4651C190.619 11.1929 190.862 11 191.141 11H198.669C199.058 11 199.344 11.3644 199.252 11.7423L192.711 38.5423C192.646 38.8109 192.405 39 192.128 39H184.49C184.19 39 183.936 38.7781 183.895 38.4805L182.977 31.7011C182.888 31.0445 181.958 30.9954 181.8 31.6389L180.109 38.5427C180.044 38.8112 179.803 39 179.527 39H172.81C172.53 39 172.287 38.8068 172.225 38.5342L166.073 11.7342C165.987 11.3584 166.273 11 166.658 11H173.809C174.089 11 174.331 11.1934 174.394 11.4661L176.066 18.7738C176.208 19.3947 177.092 19.3955 177.236 18.7748L178.922 11.4651C178.985 11.1929 179.228 11 179.507 11H185.443C185.723 11 185.965 11.1934 186.028 11.4661L187.7 18.7737Z" fill="#FF8F8F"/>
<path d="M208.858 28.1197C208.709 28.5122 208.999 28.9324 209.419 28.9324H212.984C213.404 28.9324 213.694 28.5122 213.545 28.1197L211.763 23.417C211.567 22.9006 210.836 22.9006 210.64 23.417L208.858 28.1197ZM206.347 11.3787C206.438 11.1501 206.659 11 206.905 11H215.493C215.741 11 215.964 11.1533 216.053 11.3854L226.318 38.1854C226.468 38.5783 226.178 39 225.757 39H218.079C217.831 39 217.608 38.8473 217.519 38.6157L216.75 36.621C216.661 36.3895 216.439 36.2367 216.191 36.2367H206.196C205.946 36.2367 205.723 36.3911 205.635 36.6244L204.883 38.6123C204.794 38.8456 204.571 39 204.321 39H196.27C195.846 39 195.556 38.5726 195.712 38.1787L206.347 11.3787Z" fill="#FF8F8F"/>
<path d="M232.639 19.7282C232.872 20.1164 233.434 20.1168 233.667 19.729L238.746 11.2906C238.855 11.1103 239.05 11 239.26 11H246.94C247.406 11 247.694 11.5091 247.454 11.909L237.702 28.1401L237.146 29.0811C237.092 29.1735 237.063 29.2788 237.063 29.3861V38.4C237.063 38.7314 236.794 39 236.463 39H229.862C229.53 39 229.262 38.7314 229.262 38.4V29.3861C229.262 29.2788 229.233 29.1735 229.178 29.0811L228.623 28.1401L218.871 11.909C218.63 11.5091 218.918 11 219.385 11H227.063C227.274 11 227.47 11.1106 227.578 11.2914L232.639 19.7282Z" fill="#FF8F8F"/>
<path d="M13 13L25.6192 0.380761C25.863 0.136964 26.1937 0 26.5385 0H37.7C38.418 0 39 0.58203 39 1.3V12.4615C39 12.8063 38.863 13.137 38.6192 13.3808L26 26V14.3C26 13.582 25.418 13 24.7 13H13Z" fill="url(#paint0_linear_18_555)"/>
<path d="M26 26H37.7C38.418 26 39 26.582 39 27.3V37.7C39 38.418 38.418 39 37.7 39H27.3C26.582 39 26 38.418 26 37.7V26Z" fill="url(#paint1_linear_18_555)"/>
<path d="M13 13L0.380761 25.6192C0.136964 25.863 0 26.1937 0 26.5385V37.7C0 38.418 0.58203 39 1.3 39H12.4615C12.8063 39 13.137 38.863 13.3808 38.6192L26 26H14.3C13.582 26 13 25.418 13 24.7V13Z" fill="url(#paint2_linear_18_555)"/>
<path d="M13 13H1.3C0.58203 13 0 12.418 0 11.7V1.3C0 0.58203 0.58203 0 1.3 0H11.7C12.418 0 13 0.58203 13 1.3V13Z" fill="url(#paint3_linear_18_555)"/>
<defs>
<linearGradient id="paint0_linear_18_555" x1="19.5" y1="0" x2="19.5" y2="39" gradientUnits="userSpaceOnUse">
<stop stop-color="#FF8F8F"/>
<stop offset="0.99" stop-color="#D0A2F7"/>
</linearGradient>
<linearGradient id="paint1_linear_18_555" x1="19.5" y1="0" x2="19.5" y2="39" gradientUnits="userSpaceOnUse">
<stop stop-color="#FF8F8F"/>
<stop offset="0.99" stop-color="#D0A2F7"/>
</linearGradient>
<linearGradient id="paint2_linear_18_555" x1="19.5" y1="0" x2="19.5" y2="39" gradientUnits="userSpaceOnUse">
<stop stop-color="#FF8F8F"/>
<stop offset="0.99" stop-color="#D0A2F7"/>
</linearGradient>
<linearGradient id="paint3_linear_18_555" x1="19.5" y1="0" x2="19.5" y2="39" gradientUnits="userSpaceOnUse">
<stop stop-color="#FF8F8F"/>
<stop offset="0.99" stop-color="#D0A2F7"/>
</linearGradient>
</defs>
</svg>
