<svg width="244" height="39" viewBox="0 0 244 39" fill="none" xmlns="http://www.w3.org/2000/svg">
<path d="M72.0103 19.3681C72.0103 19.0367 71.7417 18.7681 71.4103 18.7681H55.4012C55.0698 18.7681 54.8012 19.0367 54.8012 19.3681V20.5063C54.8012 20.8377 55.0698 21.1063 55.4012 21.1063H66.7257C67.0571 21.1063 67.3257 21.3749 67.3257 21.7063V28.2937C67.3257 28.6251 67.0571 28.8937 66.7257 28.8937H55.4012C55.0698 28.8937 54.8012 29.1623 54.8012 29.4937V30.6126C54.8012 30.9439 55.0698 31.2126 55.4012 31.2126H66.7257C67.0571 31.2126 67.3257 31.4812 67.3257 31.8126V38.4C67.3257 38.7314 67.0571 39 66.7257 39H47.6C47.2686 39 47 38.7314 47 38.4V11.6C47 11.2686 47.2686 11 47.6 11H86.4126C86.744 11 87.0126 11.2686 87.0126 11.6V18.1681C87.0126 18.4995 86.744 18.7681 86.4126 18.7681H80.4115C80.0802 18.7681 79.8115 19.0367 79.8115 19.3681V38.4C79.8115 38.7314 79.5429 39 79.2115 39H72.6103C72.2789 39 72.0103 38.7314 72.0103 38.4V19.3681Z" fill="#110E14"/>
<path d="M104.337 21.1063C104.669 21.1063 104.937 20.8377 104.937 20.5063V11.6C104.937 11.2686 105.206 11 105.537 11H112.119C112.45 11 112.719 11.2686 112.719 11.6V38.4C112.719 38.7314 112.45 39 112.119 39H105.537C105.206 39 104.937 38.7314 104.937 38.4V29.4937C104.937 29.1623 104.669 28.8937 104.337 28.8937H97.194C96.8626 28.8937 96.594 29.1623 96.594 29.4937V38.4C96.594 38.7314 96.3254 39 95.994 39H89.3928C89.0614 39 88.7928 38.7314 88.7928 38.4V11.6C88.7928 11.2686 89.0614 11 89.3928 11H95.994C96.3254 11 96.594 11.2686 96.594 11.6V20.5063C96.594 20.8377 96.8626 21.1063 97.194 21.1063H104.337Z" fill="#110E14"/>
<path d="M114.48 11.6C114.48 11.2686 114.748 11 115.08 11H134.206C134.537 11 134.806 11.2686 134.806 11.6V18.1681C134.806 18.4995 134.537 18.7681 134.206 18.7681H122.881C122.55 18.7681 122.281 19.0367 122.281 19.3681V20.5063C122.281 20.8377 122.55 21.1063 122.881 21.1063H134.206C134.537 21.1063 134.806 21.3749 134.806 21.7063V28.2937C134.806 28.6251 134.537 28.8937 134.206 28.8937H122.881C122.55 28.8937 122.281 29.1623 122.281 29.4937V30.6126C122.281 30.9439 122.55 31.2126 122.881 31.2126H134.206C134.537 31.2126 134.806 31.4812 134.806 31.8126V38.4C134.806 38.7314 134.537 39 134.206 39H115.08C114.748 39 114.48 38.7314 114.48 38.4V11.6Z" fill="#110E14"/>
<path d="M157.124 14.0918C159.138 16.1143 160.144 18.5556 160.144 21.4155C160.144 23.5024 159.57 25.4155 158.421 27.1546C157.652 28.3106 156.714 29.2641 155.606 30.0151C155.122 30.3426 155.243 31.1254 155.826 31.1661C156.27 31.1971 156.735 31.2126 157.221 31.2126H158.963C159.295 31.2126 159.563 31.4812 159.563 31.8126V38.4C159.563 38.7314 159.295 39 158.963 39H157.221C151.736 39 147.626 37.5314 144.89 34.5942C144.709 34.3999 144.368 34.5243 144.368 34.7903V38.4C144.368 38.7314 144.099 39 143.768 39H137.166C136.835 39 136.566 38.7314 136.566 38.4V11.6C136.566 11.2686 136.835 11 137.166 11H149.807C152.672 11.0258 155.111 12.0564 157.124 14.0918ZM144.368 23.1343C144.368 23.4657 144.636 23.7343 144.968 23.7343H149.11C149.639 23.7343 150.091 23.5475 150.465 23.1739C150.84 22.8003 151.027 22.3494 151.027 21.8213C151.027 21.2931 150.84 20.8422 150.465 20.4686C150.091 20.095 149.639 19.9082 149.11 19.9082H144.968C144.636 19.9082 144.368 20.1768 144.368 20.5082V23.1343Z" fill="#110E14"/>
<path d="M183.7 18.7737C183.842 19.3947 184.726 19.3955 184.87 18.7748L186.556 11.4651C186.619 11.1929 186.862 11 187.141 11H194.669C195.058 11 195.344 11.3644 195.252 11.7423L188.711 38.5423C188.646 38.8109 188.405 39 188.128 39H180.49C180.19 39 179.936 38.7781 179.895 38.4805L178.977 31.7011C178.888 31.0445 177.958 30.9954 177.8 31.6389L176.109 38.5427C176.044 38.8112 175.803 39 175.527 39H168.81C168.53 39 168.287 38.8068 168.225 38.5342L162.073 11.7342C161.987 11.3584 162.273 11 162.658 11H169.809C170.089 11 170.331 11.1934 170.394 11.4661L172.066 18.7738C172.208 19.3947 173.092 19.3955 173.236 18.7748L174.922 11.4651C174.985 11.1929 175.228 11 175.507 11H181.443C181.723 11 181.965 11.1934 182.028 11.4661L183.7 18.7737Z" fill="#110E14"/>
<path d="M204.858 28.1197C204.709 28.5122 204.999 28.9324 205.419 28.9324H208.984C209.404 28.9324 209.694 28.5122 209.545 28.1197L207.763 23.417C207.567 22.9006 206.836 22.9006 206.64 23.417L204.858 28.1197ZM202.347 11.3787C202.438 11.1501 202.659 11 202.905 11H211.493C211.741 11 211.964 11.1533 212.053 11.3854L222.318 38.1854C222.468 38.5783 222.178 39 221.757 39H214.079C213.831 39 213.608 38.8473 213.519 38.6157L212.75 36.621C212.661 36.3895 212.439 36.2367 212.191 36.2367H202.196C201.946 36.2367 201.723 36.3911 201.635 36.6244L200.883 38.6123C200.794 38.8456 200.571 39 200.321 39H192.27C191.846 39 191.556 38.5726 191.712 38.1787L202.347 11.3787Z" fill="#110E14"/>
<path d="M228.639 19.7282C228.872 20.1164 229.434 20.1168 229.667 19.729L234.746 11.2906C234.855 11.1103 235.05 11 235.26 11H242.94C243.406 11 243.694 11.5091 243.454 11.909L233.702 28.1401L233.146 29.0811C233.092 29.1735 233.063 29.2788 233.063 29.3861V38.4C233.063 38.7314 232.794 39 232.463 39H225.862C225.53 39 225.262 38.7314 225.262 38.4V29.3861C225.262 29.2788 225.233 29.1735 225.178 29.0811L224.623 28.1401L214.871 11.909C214.63 11.5091 214.918 11 215.385 11H223.063C223.274 11 223.47 11.1106 223.578 11.2914L228.639 19.7282Z" fill="#110E14"/>
<path d="M13 13L25.6192 0.380761C25.863 0.136964 26.1937 0 26.5385 0H37.7C38.418 0 39 0.58203 39 1.3V12.4615C39 12.8063 38.863 13.137 38.6192 13.3808L26 26V14.3C26 13.582 25.418 13 24.7 13H13Z" fill="#110E14"/>
<path d="M26 26H37.7C38.418 26 39 26.582 39 27.3V37.7C39 38.418 38.418 39 37.7 39H27.3C26.582 39 26 38.418 26 37.7V26Z" fill="#110E14"/>
<path d="M13 13L0.380761 25.6192C0.136964 25.863 0 26.1937 0 26.5385V37.7C0 38.418 0.58203 39 1.3 39H12.4615C12.8063 39 13.137 38.863 13.3808 38.6192L26 26H14.3C13.582 26 13 25.418 13 24.7V13Z" fill="#110E14"/>
<path d="M13 13H1.3C0.58203 13 0 12.418 0 11.7V1.3C0 0.58203 0.58203 0 1.3 0H11.7C12.418 0 13 0.58203 13 1.3V13Z" fill="#110E14"/>
</svg>
