<?xml version="1.0" encoding="utf-8" ?>
<svg xmlns="http://www.w3.org/2000/svg" xmlns:xlink="http://www.w3.org/1999/xlink" width="2000" height="521">
<path fill="white" d="M1371.61 176.443L1419.08 176.464L1419.23 192.714C1419.58 195.84 1421.03 197.199 1423.34 199.081C1430.11 198.965 1431.88 194.421 1436.17 190.173C1453.95 172.581 1478.72 176.39 1501.6 176.487C1503.29 178.95 1502.05 209.946 1502.03 215.384L1474.54 215.402C1468.54 215.427 1462.32 215.081 1456.53 216.917C1432.85 224.433 1420.41 255.896 1419.15 278.894C1418.77 285.844 1420.73 310.287 1418.25 314.955L1417.27 316.6C1420.67 320.759 1419.09 336.346 1419.09 342.174L1419.22 422.84L1373.09 422.734L1373.19 237.144L1373.15 196.242C1373.13 191.204 1374.12 183.271 1372.46 178.597L1371.61 176.443Z"/>
<path fill="white" d="M1998.32 422.523L1954.11 422.784L1954.1 311.608C1954.1 293.099 1956.08 272.015 1952.58 253.964C1950.54 243.416 1945.39 232.61 1937.83 224.981C1927.68 214.731 1917.21 213.55 1903.62 213.513C1885.71 213.466 1872.2 213.697 1858.7 227.15C1847.99 237.82 1840.83 252.235 1837.45 266.935C1832.76 287.326 1834.77 310.493 1834.77 331.36L1834.71 423.027L1788.38 422.594C1790.29 409.015 1789.01 393.988 1789.02 380.182L1789.04 295.478L1789.04 156.443L1788.62 80.9232L1834.78 80.8633L1834.76 162.611C1834.76 172.829 1833.17 186.181 1835.03 196.054C1835.58 199.001 1837.04 199.786 1839.36 201.357C1847.76 201.467 1855.52 190.54 1862.25 185.721C1878.45 174.122 1892.72 172.52 1912.09 172.513C1920.08 172.511 1927.8 172.383 1935.69 173.706C1953.82 176.745 1970.4 188.832 1980.95 203.578C1988.98 214.807 1994.5 227.373 1997.46 240.848C1998.45 245.311 1999.52 249.836 1998.73 254.409L1998.67 254.722C1999.29 255.854 1999.92 257.24 2000 258.549C2000.82 271.663 2000.13 285.338 2000.16 298.505L2000.17 378.455L2000.08 408.98C2000.06 412.01 2000.72 417.012 1999.84 419.825C1999.55 420.786 1998.94 421.737 1998.32 422.523Z"/>
<path fill="white" d="M1202.65 173.178L1203.45 173.073C1209.81 172.313 1216.52 172.609 1222.94 172.558C1250.33 172.343 1271.94 176.695 1293.96 194.039C1321.7 215.887 1334.79 249.24 1338.82 283.396C1343.09 319.576 1333.98 359.525 1311.11 388.328C1293.74 410.199 1270.98 422.671 1243.39 425.884L1243.16 425.935C1236.81 427.062 1229.62 426.623 1223.18 426.593C1199.47 426.484 1177.73 422.992 1158.1 408.836C1131.95 389.982 1115.7 359.03 1110.62 327.638C1104.24 288.198 1110.79 246.682 1134.49 213.862C1151 190.991 1175.2 177.651 1202.65 173.178ZM1205.47 213.18C1189.15 217.737 1177 228.523 1168.74 243.17C1153.5 270.227 1151.66 306.114 1160.03 335.67C1165.07 353.498 1176.19 371.698 1192.75 380.953C1205.91 388.306 1224.8 387.485 1239.46 386.105C1254.6 383.358 1266.76 374.451 1275.46 361.956C1292.1 338.059 1295.27 302.969 1290.18 275.051C1286.26 253.506 1276.23 233.056 1257.86 220.285C1243.7 210.439 1222 211.156 1205.47 213.18Z"/>
<path fill="white" d="M1524.65 521L1524.8 520.776C1525.46 519.706 1526.14 518.376 1526.24 517.097C1527.13 505.821 1526.31 493.891 1526.33 482.519L1526.36 409.173L1526.31 176.435L1572.02 176.489C1572.04 181.043 1571.12 189.89 1573.34 193.72C1574.32 195.404 1575.57 196.045 1577.15 197.14C1579.44 197.699 1581.98 197.576 1584.05 196.347C1589.74 192.973 1594.44 187.73 1600.1 184.191C1621.27 170.957 1648.34 169.546 1672.29 174.904C1697.63 180.576 1719.46 197.97 1733.19 219.698C1755.05 254.287 1759.79 298.287 1750.81 337.713C1743.8 368.476 1726.49 396.425 1699.45 413.347C1676.94 427.431 1645.9 429.938 1620.43 424.116C1610.72 421.895 1601.26 416.057 1593.29 410.283C1590.07 407.944 1586.85 404.716 1583.24 403.058C1580.94 402.001 1579.12 401.755 1576.64 402.458C1573.86 404.785 1572.62 405.951 1572.3 409.775C1571.46 419.509 1572.05 429.727 1572.08 439.509L1572.16 493.28C1572.16 499.409 1573.87 516.382 1570.52 521L1524.65 521ZM1619.13 213.18C1600.45 219.31 1588.79 229.826 1580.06 247.132C1566.24 274.515 1564.57 309.443 1574.2 338.432C1579.97 355.816 1590.19 372.899 1607.04 381.378C1618.28 387.028 1628.95 386.494 1641.16 386.503C1644.97 386.506 1650.19 387.037 1653.83 386.067C1654.18 385.972 1654.24 385.919 1654.51 385.752C1668.51 383.985 1679.91 374.916 1688.38 364.05C1705.57 341.994 1710.04 308.967 1706.56 281.95C1703.66 259.392 1693.16 236.276 1674.91 222.198C1668.57 217.309 1662.85 215.378 1655.32 213.324C1651.02 212.154 1646 212.581 1641.56 212.557C1634.1 212.515 1626.55 212.238 1619.13 213.18Z"/>
<path fill="white" d="M740.261 80.7867L789.691 80.9093C793.791 80.9149 800.763 79.9494 804.593 80.9291C805.759 81.2274 806.835 84.7714 807.271 85.881L877.078 270.009L891.963 309.311C894.882 317.179 897.449 325.57 901.121 333.112C902.196 335.318 903.778 336.609 905.762 337.983C908.913 338.348 909.87 338.352 912.913 337.089C918.385 331.242 920.871 320.748 923.71 313.274L940.13 269.788L1011.66 80.9101L1075.65 80.8577L1075.52 423.092L1028.25 422.752C1028.27 406.564 1029.58 268.077 1027.72 264.587L1026.74 262.944L1027.11 262.464C1027.73 261.591 1028.32 260.603 1028.44 259.524C1029.87 246.812 1028.41 232.593 1028.42 219.726C1028.42 212.369 1029.85 202.311 1028.36 195.201C1027.82 192.581 1025.47 191.547 1023.44 190.242C1021.82 190.116 1020.07 189.929 1018.56 190.641C1016.24 191.74 1015.49 193.057 1014.46 195.306C1010.95 202.956 1008.32 211.21 1005.28 219.08L984.529 273.304L927.544 422.504C923.589 423.338 918.672 422.807 914.584 422.792L889.346 422.669L804.665 198.79C803.377 195.523 802.116 192.112 798.597 190.741C795.783 189.645 794.085 190.189 791.504 191.434C790.062 193.273 789.274 194.94 789.081 197.29C788.296 206.864 789.026 217.154 789.062 226.81L789.342 284.119L789.275 422.803L741.601 422.863L741.772 179.373L741.739 107.645C741.73 100.649 743.419 88.9716 741.077 82.7464L740.392 81.0551L740.261 80.7867Z"/>
<path fill="white" d="M0 -0L346.229 0L528.155 0L528 0.997085C529.733 13.8381 528.539 28.1694 528.547 41.2175L528.573 121.543L528.404 363.468L395.227 363.175L365.042 363.122C361.965 363.105 356.883 362.334 354.004 363.024C353.168 363.225 351.872 364.204 351.074 364.645C349.852 366.236 349.249 367.662 348.965 369.649C348.029 376.219 348.764 383.739 348.757 390.453L348.775 435.119C335.804 435.116 242.78 436.591 239.044 434.414L206.821 292.208L198.55 255.53C197.692 251.658 197.037 244.74 195.199 241.475C194.739 240.658 193.256 239.441 192.574 238.727C189.474 237.919 188.503 237.916 185.42 238.784C184.651 239.684 183.219 240.953 182.706 241.963C180.941 245.439 182.304 286.539 182.303 292.733L182.348 509.495L0 509.371L0 147.63L0 -0ZM0 0L0 147.63L167.969 147.367C169.089 146.712 170.068 146.045 170.806 144.951C171.642 143.715 172.512 142.12 172.459 140.582C172.262 134.917 169.629 127.781 168.346 122.152L157.32 73.2628L341.797 73.012C343.705 71.3392 345.153 70.4787 345.813 67.873C346.906 63.5579 346.029 56.8322 346.027 52.3058C346.022 35.4589 344.648 17.6005 346.381 0.936954L346.229 0L0 -0ZM346.229 0L346.381 0.936954L528 0.997085L528.155 0L346.229 0Z"/>
<path d="M346.229 0L528.155 0L528 0.997085L346.381 0.936954L346.229 0Z"/>
</svg>