<?xml version="1.0" encoding="utf-8" ?>
<svg xmlns="http://www.w3.org/2000/svg" xmlns:xlink="http://www.w3.org/1999/xlink" width="279" height="180">
<path fill="white" fill-opacity="0.96078432" d="M116.288 101.209C116.265 101.587 116.04 102.982 116.161 103.25C116.259 103.467 116.536 103.659 116.625 103.877C116.926 104.614 116.473 106.919 116.384 107.744L116.06 108L116.049 109.375L115.75 109.623C115.514 109.304 115.361 108.969 115.199 108.611C115.454 106.13 115.571 103.606 116.288 101.209Z"/>
<path fill="white" fill-opacity="0.96078432" d="M177.101 40.3022C176.597 39.742 176.078 39.049 175.742 38.375C174.432 35.7498 174.788 32.6866 175.658 30.0129C175.745 30.5342 175.767 31.0874 176.123 31.5C176.006 33.1012 175.89 34.7109 176.235 36.2942C176.584 37.8976 177.264 38.5021 177.101 40.3022Z"/>
<path fill="white" fill-opacity="0.98823529" d="M175.658 30.0129C177.317 25.6207 179.73 22.2777 184.074 20.3031C186.034 19.4124 189.191 19.7304 191.197 20.4819C192.656 21.0286 193.672 22.3453 194.26 23.7287C194.824 25.0542 195.33 26.5133 194.72 27.9223C193.353 31.0766 189.461 31.4995 187.589 34.1515C185.881 36.5726 186.89 40.604 183.491 41.8876C181.933 42.4759 180.666 42.6658 179.136 41.93C178.301 41.5288 177.598 41.1074 177.101 40.3022C177.264 38.5021 176.584 37.8976 176.235 36.2942C175.89 34.7109 176.006 33.1012 176.123 31.5C175.767 31.0874 175.745 30.5342 175.658 30.0129Z"/>
<path fill="white" fill-opacity="0.98823529" d="M190.951 158.002L190.726 158.472C189.576 159.263 188.278 159.844 186.875 160.002L186.75 160.015C185.655 160.137 184.889 159.85 184 159.238C182.378 158.122 181.836 156.582 181.523 154.715C180.548 148.898 185.775 143.927 188.848 139.598C191.058 136.485 192.347 132.549 193.12 128.83C194.218 123.549 194.355 118.112 193.276 112.815C192.151 107.298 189.793 102.039 187.793 96.8029C185.837 91.6828 184.199 86.479 183.299 81.0609C181.923 72.7766 182.936 64.7583 186.284 57.1029C187.157 55.1072 188.042 53.0893 189.32 51.3121C191.082 48.8613 194.251 45.4079 197.352 44.9302L197.5 44.9088C198.382 44.7756 199.21 44.9305 200.018 45.3179C200.583 45.5888 200.728 45.6745 200.942 46.2673C201.875 46.5915 202.347 47.552 202.763 48.3911C203.469 49.8175 203.375 52.6871 202.897 54.158C201.797 57.5471 199.305 60.4712 197.299 63.3525C196.161 64.9857 195.248 66.6968 194.403 68.4933C193.561 70.2816 192.87 72.1363 192.225 74.0034C191.894 74.9616 191.918 75.9367 191.193 76.6658C191.551 77.9965 191.069 79.7823 191.014 81.1823C190.88 84.5873 190.711 88.4983 191.346 91.8613L192.348 97.1913C192.485 97.8603 192.869 98.6195 192.639 99.2874C193.623 100.802 193.976 103.112 194.555 104.85C196.19 109.758 197.458 114.615 198.293 119.723C198.467 120.786 198.83 121.794 198.965 122.875C199.554 127.599 199.586 132.602 199.356 137.354C199.255 139.426 199.249 141.796 198.815 143.822C197.861 148.287 195.714 155.206 191.565 157.71L190.951 158.002ZM200.942 46.2673L200.875 47.6937L201.447 48.125L201.652 50.8652L201.875 49.25L201.875 52.1275L201.608 52.272C201.45 53.338 201.366 54.4605 200.875 55.4338L200.537 55.625C200.396 56.4076 200.207 57.0123 199.532 57.5C199.311 58.484 198.968 58.5974 198.513 59.375C198.364 59.6301 197.263 61.4298 197.104 61.5164C196.437 61.8809 196.46 62.4887 196.068 63.049C195.9 63.2884 195.62 63.3203 195.466 63.625C195.356 63.8407 195.261 64.4429 195.125 64.5838C195.007 64.7058 194.709 64.7499 194.602 64.875C194.162 65.3887 194.052 66.0825 193.56 66.625C193.45 66.7462 193.302 67.4686 193.235 67.6582C193.025 68.2565 192.847 68.4229 192.56 68.875C192.108 69.5852 192.352 70.6773 191.557 71.25C191.352 72.191 191.223 73.8914 190.7 74.6629C189.815 75.9684 190.58 78.8054 189.591 79.875L189.507 90.375L189.6 90.4678C190.518 91.4221 190.165 93.5203 190.383 94.7809C190.509 95.5067 190.79 95.9726 190.974 96.625C191.234 97.5448 191.222 98.569 191.444 99.5097C191.611 100.217 192.005 100.726 192.203 101.375C192.314 101.741 192.238 102.147 192.35 102.525C192.564 103.247 192.952 103.908 193.162 104.625C193.685 106.41 194.014 108.382 194.625 110.127C194.753 110.492 195.031 110.727 195.122 111.127C195.352 112.129 195.315 113.456 195.625 114.377C195.714 114.643 195.975 114.86 196.084 115.125C196.385 115.855 196.423 117.154 196.587 117.969C196.693 118.493 196.977 118.878 197.096 119.375C197.576 121.384 197.432 123.811 197.656 125.895L197.877 125.75C198.6 130.044 198.653 135.415 198.078 139.736C198.002 140.309 197.656 140.783 197.591 141.375C197.457 142.576 197.528 143.89 197.264 145.064C197.114 145.729 196.671 146.239 196.479 146.875C196.318 147.41 196.366 148.39 196.059 148.823C195.472 149.65 195.527 150.272 195.104 151.099C193.967 153.328 192.834 155.266 190.973 157.125L190.951 158.002L191.565 157.71C195.714 155.206 197.861 148.287 198.815 143.822C199.249 141.796 199.255 139.426 199.356 137.354C199.586 132.602 199.554 127.599 198.965 122.875C198.83 121.794 198.467 120.786 198.293 119.723C197.458 114.615 196.19 109.758 194.555 104.85C193.976 103.112 193.623 100.802 192.639 99.2874C192.869 98.6195 192.485 97.8603 192.348 97.1913L191.346 91.8613C190.711 88.4983 190.88 84.5873 191.014 81.1823C191.069 79.7823 191.551 77.9965 191.193 76.6658C191.918 75.9367 191.894 74.9616 192.225 74.0034C192.87 72.1363 193.561 70.2816 194.403 68.4933C195.248 66.6968 196.161 64.9857 197.299 63.3525C199.305 60.4712 201.797 57.5471 202.897 54.158C203.375 52.6871 203.469 49.8175 202.763 48.3911C202.347 47.552 201.875 46.5915 200.942 46.2673Z"/>
<path fill="white" fill-opacity="0.9137255" d="M200.942 46.2673C201.875 46.5915 202.347 47.552 202.763 48.3911C203.469 49.8175 203.375 52.6871 202.897 54.158C201.797 57.5471 199.305 60.4712 197.299 63.3525C196.161 64.9857 195.248 66.6968 194.403 68.4933C193.561 70.2816 192.87 72.1363 192.225 74.0034C191.894 74.9616 191.918 75.9367 191.193 76.6658C191.551 77.9965 191.069 79.7823 191.014 81.1823C190.88 84.5873 190.711 88.4983 191.346 91.8613L192.348 97.1913C192.485 97.8603 192.869 98.6195 192.639 99.2874C193.623 100.802 193.976 103.112 194.555 104.85C196.19 109.758 197.458 114.615 198.293 119.723C198.467 120.786 198.83 121.794 198.965 122.875C199.554 127.599 199.586 132.602 199.356 137.354C199.255 139.426 199.249 141.796 198.815 143.822C197.861 148.287 195.714 155.206 191.565 157.71L190.951 158.002L190.973 157.125C192.834 155.266 193.967 153.328 195.104 151.099C195.527 150.272 195.472 149.65 196.059 148.823C196.366 148.39 196.318 147.41 196.479 146.875C196.671 146.239 197.114 145.729 197.264 145.064C197.528 143.89 197.457 142.576 197.591 141.375C197.656 140.783 198.002 140.309 198.078 139.736C198.653 135.415 198.6 130.044 197.877 125.75L197.656 125.895C197.432 123.811 197.576 121.384 197.096 119.375C196.977 118.878 196.693 118.493 196.587 117.969C196.423 117.154 196.385 115.855 196.084 115.125C195.975 114.86 195.714 114.643 195.625 114.377C195.315 113.456 195.352 112.129 195.122 111.127C195.031 110.727 194.753 110.492 194.625 110.127C194.014 108.382 193.685 106.41 193.162 104.625C192.952 103.908 192.564 103.247 192.35 102.525C192.238 102.147 192.314 101.741 192.203 101.375C192.005 100.726 191.611 100.217 191.444 99.5097C191.222 98.569 191.234 97.5448 190.974 96.625C190.79 95.9726 190.509 95.5067 190.383 94.7809C190.165 93.5203 190.518 91.4221 189.6 90.4678L189.507 90.375L189.591 79.875C190.58 78.8054 189.815 75.9684 190.7 74.6629C191.223 73.8914 191.352 72.191 191.557 71.25C192.352 70.6773 192.108 69.5852 192.56 68.875C192.847 68.4229 193.025 68.2565 193.235 67.6582C193.302 67.4686 193.45 66.7462 193.56 66.625C194.052 66.0825 194.162 65.3887 194.602 64.875C194.709 64.7499 195.007 64.7058 195.125 64.5838C195.261 64.4429 195.356 63.8407 195.466 63.625C195.62 63.3203 195.9 63.2884 196.068 63.049C196.46 62.4887 196.437 61.8809 197.104 61.5164C197.263 61.4298 198.364 59.6301 198.513 59.375C198.968 58.5974 199.311 58.484 199.532 57.5C200.207 57.0123 200.396 56.4076 200.537 55.625L200.875 55.4338C201.366 54.4605 201.45 53.338 201.608 52.272L201.875 52.1275L201.875 49.25L201.652 50.8652L201.447 48.125L200.875 47.6937L200.942 46.2673ZM192.639 99.2874C192.869 98.6195 192.485 97.8603 192.348 97.1913L191.346 91.8613C190.711 88.4983 190.88 84.5873 191.014 81.1823C191.069 79.7823 191.551 77.9965 191.193 76.6658L190.601 76.8018C189.634 82.5047 190.292 87.9818 190.625 93.6679L190.914 93.7586C191.069 94.8849 191.296 98.003 191.882 98.7497C192.077 98.9987 192.181 99.3333 192.298 99.626L192.639 99.2874Z"/>
<path fill="white" fill-opacity="0.85882354" d="M192.639 99.2874L192.298 99.626C192.181 99.3333 192.077 98.9987 191.882 98.7497C191.296 98.003 191.069 94.8849 190.914 93.7586L190.625 93.6679C190.292 87.9818 189.634 82.5047 190.601 76.8018L191.193 76.6658C191.551 77.9965 191.069 79.7823 191.014 81.1823C190.88 84.5873 190.711 88.4983 191.346 91.8613L192.348 97.1913C192.485 97.8603 192.869 98.6195 192.639 99.2874Z"/>
<path fill="white" fill-opacity="0.98823529" d="M116.288 101.209L117.108 98.4611C117.901 96.3036 119.398 94.1269 121.582 93.1655C123.341 92.3917 125.313 92.3398 127.099 93.0776C129.124 93.9147 130.217 95.4949 130.947 97.4845C133.402 104.171 130.422 111.416 128.798 117.915C127.833 121.777 127.255 125.921 127.79 129.875C127.967 131.19 128.056 132.438 128.722 133.612C129.532 135.039 130.129 136.547 131.039 137.936C132.695 140.464 135.537 142.654 138.458 143.474C142.645 144.65 147.679 143.588 151.407 141.479C158.554 137.436 163.778 128.64 165.877 120.868C168.811 110.002 169.077 98.2004 164.845 87.625C163.058 83.1579 160.414 78.7385 158.004 74.5671C154.091 67.7942 146.795 58.1786 149.008 49.875C149.427 48.3052 150.211 46.4513 151.721 45.6328C153.274 44.7914 154.982 44.5224 156.674 45.0657C157.883 45.4539 159.253 46.1922 159.84 47.3656C161.301 50.2833 161.067 52.9884 161.241 56.1521C161.417 59.3412 161.636 62.913 162.257 66.0404C163.148 70.5334 164.582 74.7986 165.986 79.125L168.313 87.5C169.513 91.6949 170.967 95.8345 171.957 100.102C174.37 110.502 174.314 123.271 170.803 133.408C167.283 143.569 161.316 153.135 151.282 157.903C146.77 160.047 139.421 160.38 134.713 158.672C128.022 156.245 122.911 150.376 119.984 144.022C117.879 139.454 116.59 134.822 115.721 129.876C115.382 128.585 115.372 127.095 115.252 125.762C114.861 123.831 114.883 121.669 114.834 119.703C114.744 116.056 114.76 112.233 115.199 108.611C115.361 108.969 115.514 109.304 115.75 109.623L116.049 109.375L116.06 108L116.384 107.744C116.473 106.919 116.926 104.614 116.625 103.877C116.536 103.659 116.259 103.467 116.161 103.25C116.04 102.982 116.265 101.587 116.288 101.209ZM115.199 108.611C114.76 112.233 114.744 116.056 114.834 119.703C114.883 121.669 114.861 123.831 115.252 125.762C115.388 125.169 115.452 124.3 115.875 123.877C116.285 124.595 116.099 125.986 116.1 126.811L116.405 126.599C116.425 126.352 116.459 126.084 116.371 125.848C115.58 123.741 115.721 109.973 116.384 107.744L116.06 108L116.049 109.375L115.75 109.623C115.514 109.304 115.361 108.969 115.199 108.611ZM115.252 125.762C115.372 127.095 115.382 128.585 115.721 129.876L115.792 127.682L116.092 127.624C116.068 128.409 115.963 129.72 116.428 130.355C116.877 129.248 116.54 127.767 116.405 126.599L116.1 126.811C116.099 125.986 116.285 124.595 115.875 123.877C115.452 124.3 115.388 125.169 115.252 125.762Z"/>
<path fill="white" fill-opacity="0.95294118" d="M115.252 125.762C115.388 125.169 115.452 124.3 115.875 123.877C116.285 124.595 116.099 125.986 116.1 126.811L116.405 126.599C116.54 127.767 116.877 129.248 116.428 130.355C115.963 129.72 116.068 128.409 116.092 127.624L115.792 127.682L115.721 129.876C115.382 128.585 115.372 127.095 115.252 125.762Z"/>
<path fill="white" fill-opacity="0.97254902" d="M115.199 108.611C115.361 108.969 115.514 109.304 115.75 109.623L116.049 109.375L116.06 108L116.384 107.744C115.721 109.973 115.58 123.741 116.371 125.848C116.459 126.084 116.425 126.352 116.405 126.599L116.1 126.811C116.099 125.986 116.285 124.595 115.875 123.877C115.452 124.3 115.388 125.169 115.252 125.762C114.861 123.831 114.883 121.669 114.834 119.703C114.744 116.056 114.76 112.233 115.199 108.611Z"/>
<path fill="white" d="M50.2455 43.2876C49.7443 40.939 49.0546 39.5721 47.0151 38.2264C45.0628 38.1689 43.6242 37.9829 42.0898 39.446C40.4616 40.9986 39.4773 43.0757 39.4588 45.354C39.4401 47.6472 40.3917 50.1039 41.3026 52.1472C44.1396 58.5108 48.6281 63.5287 52.6614 69.125C57.2681 75.517 61.382 82.3029 64.9622 89.3134C68.6264 96.4888 71.7364 103.718 72.9279 111.756C73.8718 118.124 73.4974 125.09 72.2769 131.396C70.7202 139.439 67.9129 147.138 62.0324 153.105C58.239 156.955 53.8711 159.646 48.3336 159.68C43.1732 159.712 38.7979 158.622 35.0456 154.91C29.2778 149.205 26.5582 141.827 26.5296 133.718C26.5153 129.668 26.9889 125.427 25.5925 121.555C24.872 119.557 23.8883 117.49 22.6573 115.754C20.0939 112.139 14.9244 108.036 16.2743 103C16.5169 102.095 16.7103 101.384 17.3874 100.695C18.1361 99.9322 19.1357 99.2108 20.25 99.2367C22.4263 99.2873 24.8593 100.349 26.3324 101.967C29.6096 105.566 32.1231 110.813 33.0638 115.583C33.5386 117.992 33.6449 120.636 33.8577 123.093C34.0081 124.828 33.8444 126.797 34.2326 128.484C35.2651 132.973 38.1327 136.684 41.8708 139.302C44.6373 141.239 47.1878 142.486 50.6283 142.664C55.069 142.894 58.8077 140.7 62.0264 137.801C66.5728 133.706 69.2179 127.175 69.5077 121.125C70.1315 108.102 64.6761 95.2954 55.9652 85.7599C44.7445 73.477 28.5945 64.7321 24.3018 47.4844C23.6775 44.9759 23.0947 42.2785 23.2209 39.6802C23.5024 33.8848 26.3532 27.8778 30.67 23.971C33.7417 21.191 37.7722 19.2783 41.9592 19.4998C45.1228 19.6671 48.8733 21.2735 50.9856 23.6649C55.6033 28.8925 55.8127 36.7178 56.805 43.2882C56.9708 44.386 56.9177 45.5929 57.2164 46.6544C58.3515 50.6882 60.222 54.2487 61.9935 58.0183L63.6716 61.9916C64.3683 63.4835 64.1498 65.4977 63.9142 67.0822C62.413 68.513 61.4483 69.381 59.2582 69.3356C58.2803 69.3154 57.6708 68.995 56.8654 68.4839C54.2227 66.8066 52.8872 62.1443 52.2453 59.203L51.7418 56.2811C51.2683 54.3372 51.2988 52.1597 51.1708 50.1636C50.6335 47.997 50.6853 45.5299 50.2455 43.2876ZM50.2455 43.2876C50.6853 45.5299 50.6335 47.997 51.1708 50.1636L51.75 49.8775C52.3718 50.5883 51.747 52.9514 52.2787 53.2293L52.4695 53.0933C52.2486 50.0066 52.2201 46.6631 51.4915 43.6663C51.3176 42.951 51.3436 42.432 50.9898 41.7512L50.7512 41.7512C50.3499 42.2073 50.3237 42.7082 50.2455 43.2876ZM51.1708 50.1636C51.2988 52.1597 51.2683 54.3372 51.7418 56.2811L51.7835 53.75L52.0892 53.5229C52.0711 54.4001 51.9715 55.7856 52.4425 56.5244C52.75 55.4157 52.5585 54.2251 52.4695 53.0933L52.2787 53.2293C51.747 52.9514 52.3718 50.5883 51.75 49.8775L51.1708 50.1636Z"/>
<path fill="white" fill-opacity="0.94901961" d="M51.1708 50.1636L51.75 49.8775C52.3718 50.5883 51.747 52.9514 52.2787 53.2293L52.4695 53.0933C52.5585 54.2251 52.75 55.4157 52.4425 56.5244C51.9715 55.7856 52.0711 54.4001 52.0892 53.5229L51.7835 53.75L51.7418 56.2811C51.2683 54.3372 51.2988 52.1597 51.1708 50.1636Z"/>
<path fill="white" fill-opacity="0.96078432" d="M50.2455 43.2876C50.3237 42.7082 50.3499 42.2073 50.7512 41.7512L50.9898 41.7512C51.3436 42.432 51.3176 42.951 51.4915 43.6663C52.2201 46.6631 52.2486 50.0066 52.4695 53.0933L52.2787 53.2293C51.747 52.9514 52.3718 50.5883 51.75 49.8775L51.1708 50.1636C50.6335 47.997 50.6853 45.5299 50.2455 43.2876Z"/>
<path fill="white" fill-opacity="0.98823529" d="M79.2447 40.4406C80.3679 36.5006 81.6603 33.3051 83.9175 29.854C87.4049 24.5221 93.3774 21.1562 99.5193 19.8784C104.597 18.8221 111.268 20.8505 115.516 23.648C122.635 28.3357 127.415 38.0632 129.091 46.2096C131.312 57.0071 131.383 68.2396 125.082 77.7107C121.379 83.2773 115.785 86.7842 110.494 90.6266C105.042 94.5856 99.7492 99.1217 96.1402 104.878C95.2709 106.264 94.1309 107.943 93.8109 109.552C90.1763 118.269 89.9231 128.361 93.5358 137.106C95.6485 142.219 100.036 147.503 100.223 153.13C100.257 154.163 100.235 155.351 99.8169 156.316C99.581 156.86 99.1752 157.319 98.7656 157.741L98.7071 157.836C98.0221 158.895 96.734 159.817 95.4761 160.024C94.167 160.238 92.7071 160.055 91.6238 159.265C86.5015 155.532 83.7393 146.627 82.8548 140.678C82.4326 138.78 82.4921 136.812 82.497 134.877C82.5043 132.023 82.5471 129 83.2614 126.218C83.505 124.073 84.2303 121.833 84.8029 119.759C86.9772 111.881 90.8382 104.778 95.9137 98.4043C99.48 93.9256 103.798 89.6892 107.875 85.6679C110.711 82.8702 113.942 79.9759 116.154 76.6542C117.256 74.9978 117.859 73.3873 118.096 71.4183C117.445 70.4154 116.761 69.5969 115.906 68.7617C111.971 71.9662 109.165 76.9147 103.878 77.9957C99.0402 78.9849 93.4477 78.5784 89.2536 75.7563C82.833 71.4359 80.2314 64.4958 78.8311 57.2241C78.4336 55.5756 78.4466 53.8133 78.3811 52.125C78.2275 48.1693 78.3379 44.3118 79.2447 40.4406ZM96.0908 31.0215C92.1458 32.5296 89.7926 34.2141 88.0371 38.1603C86.2073 42.2733 85.4172 46.5133 87.1112 50.8214C88.0423 53.1893 90.0576 55.9419 92.4372 56.9606C93.5397 57.4326 94.722 57.6749 95.8888 57.9332C97.8557 57.6753 98.7792 56.818 100.194 55.5541C101.018 54.8178 101.739 52.8498 101.794 51.75C101.9 49.611 101.139 47.6923 101.69 45.5372C102.031 44.2036 102.979 42.9727 103.677 41.8002C105.406 38.8974 105.684 36.4246 103.304 33.8496C101.457 31.8523 99.5352 31.1299 96.8463 31.0158L96.0908 31.0215ZM98.7656 157.741C99.1752 157.319 99.581 156.86 99.8169 156.316C100.235 155.351 100.257 154.163 100.223 153.13C100.036 147.503 95.6485 142.219 93.5358 137.106C89.9231 128.361 90.1763 118.269 93.8109 109.552C93.4334 109.459 93.1948 109.334 92.8205 109.484L92.6026 108.941C92.3217 109.996 92.283 111.488 91.8346 112.426L91.59 111.918C91.3831 113.116 91.3688 115.478 90.8245 116.476L90.6066 116C90.2952 118.91 89.583 122.248 89.6648 125.137C89.7079 126.659 90.1507 128.236 90.3618 129.743C90.4741 130.545 90.3698 131.478 90.5521 132.25C91.0206 134.233 91.9762 136.22 92.625 138.173L92.886 138.048C93.1936 138.937 93.3558 140.162 93.9323 140.887C94.6517 141.793 94.9717 143.25 95.6182 144.173C96.3432 145.208 97.2702 146.816 97.5408 148.117C97.6335 148.562 98.0335 148.683 98.1746 149.1C98.5682 150.264 98.4539 151.314 99.1795 152.375C99.2101 153.062 99.3397 154.004 99.1674 154.664C98.9009 155.685 98.1654 156.447 98.149 157.625L98.5162 157.427L98.7656 157.741ZM79.2447 40.4406C78.3379 44.3118 78.2275 48.1693 78.3811 52.125C78.4466 53.8133 78.4336 55.5756 78.8311 57.2241C78.9298 56.9581 79.0404 56.7621 79.2061 56.5324L79.5291 56.5C79.8037 54.2696 79.4012 51.8555 79.3926 49.5883C79.3846 47.4809 79.6497 45.3492 79.5593 43.2479C79.5428 42.8644 79.3229 42.7079 79.2633 42.375C79.1574 41.7839 79.235 41.0458 79.2447 40.4406ZM83.2614 126.218C82.5471 129 82.5043 132.023 82.497 134.877C82.4921 136.812 82.4326 138.78 82.8548 140.678L83.0864 140.22L83.2971 140.375C84.363 139.016 83.2392 128.583 83.2614 126.218Z"/>
<path fill="white" fill-opacity="0.94509804" d="M83.2614 126.218C83.2392 128.583 84.363 139.016 83.2971 140.375L83.0864 140.22L82.8548 140.678C82.4326 138.78 82.4921 136.812 82.497 134.877C82.5043 132.023 82.5471 129 83.2614 126.218Z"/>
<path fill="white" fill-opacity="0.94901961" d="M79.2447 40.4406C79.235 41.0458 79.1574 41.7839 79.2633 42.375C79.3229 42.7079 79.5428 42.8644 79.5593 43.2479C79.6497 45.3492 79.3846 47.4809 79.3926 49.5883C79.4012 51.8555 79.8037 54.2696 79.5291 56.5L79.2061 56.5324C79.0404 56.7621 78.9298 56.9581 78.8311 57.2241C78.4336 55.5756 78.4466 53.8133 78.3811 52.125C78.2275 48.1693 78.3379 44.3118 79.2447 40.4406Z"/>
<path fill="white" fill-opacity="0.8509804" d="M98.7656 157.741L98.5162 157.427L98.149 157.625C98.1654 156.447 98.9009 155.685 99.1674 154.664C99.3397 154.004 99.2101 153.062 99.1795 152.375C98.4539 151.314 98.5682 150.264 98.1746 149.1C98.0335 148.683 97.6335 148.562 97.5408 148.117C97.2702 146.816 96.3432 145.208 95.6182 144.173C94.9717 143.25 94.6517 141.793 93.9323 140.887C93.3558 140.162 93.1936 138.937 92.886 138.048L92.625 138.173C91.9762 136.22 91.0206 134.233 90.5521 132.25C90.3698 131.478 90.4741 130.545 90.3618 129.743C90.1507 128.236 89.7079 126.659 89.6648 125.137C89.583 122.248 90.2952 118.91 90.6066 116L90.8245 116.476C91.3688 115.478 91.3831 113.116 91.59 111.918L91.8346 112.426C92.283 111.488 92.3217 109.996 92.6026 108.941L92.8205 109.484C93.1948 109.334 93.4334 109.459 93.8109 109.552C90.1763 118.269 89.9231 128.361 93.5358 137.106C95.6485 142.219 100.036 147.503 100.223 153.13C100.257 154.163 100.235 155.351 99.8169 156.316C99.581 156.86 99.1752 157.319 98.7656 157.741Z"/>
<path fill="white" d="M217.656 29.9875C219.655 26.7429 221.472 20.8774 225.7 19.7762C227.137 19.4018 229.216 19.9414 230.429 20.7019C231.627 21.4523 232.664 22.8041 232.954 24.1887C234.056 29.4414 230.507 34.4304 228.324 38.9377C227.057 41.5519 225.852 44.4206 225.125 47.2398C223.87 52.1066 223.921 57.307 224.754 62.2278C225.502 66.6455 226.947 71.1566 229.466 74.9155C233.143 80.4034 238.15 84.6255 243.363 88.5857C248.384 92.3995 253.666 96.0556 257.405 101.229C257.701 101.638 257.69 101.789 257.701 102.275C258.588 102.815 258.676 103.346 259.162 104.19C260.324 106.208 261.449 108.505 262.021 110.773C265.21 123.399 262.864 136.745 256.078 147.86C255.209 149.284 253.302 152.173 251.748 152.772C251.174 154.319 247.219 156.784 245.667 157.51C244.248 158.174 242.486 159.029 240.911 159.021C239.66 159.608 238.082 159.82 236.711 159.749L236.567 159.823C235.855 160.097 234.798 159.9 234.056 159.818C231.318 159.519 228.899 158.983 226.401 157.795C224.302 156.797 221.932 155.503 220.177 153.984C216.75 151.016 214.069 146.132 212.696 141.867C212.072 139.93 211.84 137.875 211.157 135.965C211.45 135.076 211.007 133.231 210.962 132.256C210.872 130.35 210.874 128.372 211.031 126.471C211.192 124.524 211.473 122.468 211.876 120.556C212.175 119.133 213.013 117.477 212.927 116.038C213.542 115.424 213.845 114.163 214.207 113.355C215.923 109.531 218.335 106.123 221.969 103.91C227.812 100.353 236.692 99.6866 242.279 104.141C243.653 105.236 244.856 106.61 246.012 107.928C246.691 108.703 247.331 109.742 248.375 109.998C249.265 109.905 249.697 109.461 250.315 108.875C251.081 107.14 248.797 103.722 247.83 102.275C246.466 100.235 244.714 98.4462 243.057 96.6409L234.372 87.6254C227.422 80.641 221.201 71.7313 218.085 62.3163C217.079 59.2753 216.793 55.9016 215.664 52.956C215.839 52.3613 215.623 51.5985 215.582 50.9759L215.425 46.6352C215.344 43.1867 215.38 39.6533 216.175 36.2818L216.23 36.041C216.637 34.2792 217.714 31.7002 217.656 29.9875ZM218.951 131.754C219.132 132.225 220.068 140.252 219.986 140.488C221.131 141.11 222.208 143.81 223.212 144.895C224.674 146.476 227.835 148.572 230.073 148.639C231.957 148.695 234.194 148.14 235.6 146.822C236.314 146.153 236.806 145.232 237.235 144.365C239.388 140.017 235.3 137.478 234.353 133.496C233.956 131.825 234.49 130.275 234.509 128.61C234.531 126.773 233.321 124.35 232.063 123.077C231.432 122.439 230.03 121.548 229.089 121.622C224.947 121.951 221.608 124.689 220.201 128.511C219.835 129.505 219.776 130.853 219.049 131.651L218.951 131.754ZM257.701 102.275C257.384 102.741 257.377 102.809 257.377 103.375C257.57 103.503 257.724 103.546 257.798 103.772L258.181 104.812C258.351 105.386 258.83 105.751 258.967 106.354L259.501 107.999C259.72 107.999 259.724 107.975 259.877 108.125C260.055 109.021 260.132 110.529 260.681 111.234C261.519 112.308 261.05 113.935 261.627 115.125L261.682 115.299C261.777 115.639 262.059 115.9 262.127 116.25C262.623 118.769 262.472 121.874 262.258 124.517C262.201 125.234 262.272 126.084 261.995 126.751C261.744 127.355 261.857 128.224 261.873 128.875L261.594 128.751C261.449 130.075 261.401 131.786 260.682 132.941C260.305 133.546 260.462 134.555 260.246 135.25C260.077 135.792 259.655 136.224 259.457 136.75C259.248 137.304 259.291 137.941 259.09 138.486C258.937 138.905 258.828 138.762 258.583 139.001C258.462 139.12 258.298 140.236 258.195 140.5C258.014 140.967 257.797 140.936 257.583 141.251C257.247 141.747 257.42 142.972 256.875 143.459C256.818 143.51 256.524 143.578 256.5 143.625C256.474 143.676 256.483 143.739 256.475 143.796C256.376 144.424 256.182 144.886 255.875 145.438L255.554 145.625C255.387 146.378 255.22 147.133 254.636 147.666C254.309 147.964 254.263 148.441 253.86 148.798C253.625 149.007 252.933 150.07 252.873 150.375L252.597 150.292L251.836 151.603L251.531 151.625L250.822 152.646L250.503 152.641L249.912 153.5L250.125 153.8C250.554 153.451 251.216 152.732 251.748 152.772C253.302 152.173 255.209 149.284 256.078 147.86C262.864 136.745 265.21 123.399 262.021 110.773C261.449 108.505 260.324 106.208 259.162 104.19C258.676 103.346 258.588 102.815 257.701 102.275ZM212.927 116.038C213.013 117.477 212.175 119.133 211.876 120.556C211.473 122.468 211.192 124.524 211.031 126.471C210.874 128.372 210.872 130.35 210.962 132.256C211.007 133.231 211.45 135.076 211.157 135.965C211.339 135.732 211.396 135.553 211.694 135.5L211.961 135.711C212.252 134.438 212.031 132.974 211.988 131.673C211.936 130.068 212.017 128.475 212.087 126.873C212.112 126.293 211.966 125.461 212.202 124.942C212.672 123.911 212.375 122.784 212.65 121.75C212.899 120.816 213.373 119.678 213.488 118.67C213.56 118.042 213.661 117.866 213.265 117.375C213.35 116.87 213.132 116.483 212.927 116.038ZM216.175 36.2818C215.38 39.6533 215.344 43.1867 215.425 46.6352L215.582 50.9759C215.623 51.5985 215.839 52.3613 215.664 52.956L216.059 52.4321L216.342 52.5905C216.438 52.4637 216.671 52.2296 216.719 52.0914C217.083 51.0435 216.608 48.7101 216.574 47.5226L216.638 38.9279C216.082 38.2211 216.197 37.1432 216.175 36.2818ZM219.986 140.488C220.068 140.252 219.132 132.225 218.951 131.754C219.006 130.95 219.082 130.317 218.65 129.595C217.769 132.118 218.259 135.37 218.377 138L218.455 138.068C218.732 138.321 218.87 138.469 218.882 138.852C218.912 139.798 219.093 140.571 219.625 141.373C219.812 141.073 219.982 140.85 219.986 140.488ZM216.23 36.041L216.55 36.625C216.825 36.6241 216.912 36.6379 217.158 36.5C217.748 34.8404 218.541 32.3553 218.598 30.625L217.656 29.9875C217.714 31.7002 216.637 34.2792 216.23 36.041ZM236.711 159.749C238.082 159.82 239.66 159.608 240.911 159.021C240.597 158.791 239.833 158.341 239.501 158.251C239.035 158.125 237.664 158.515 237.125 158.576C236.421 158.655 235.689 158.538 235.002 158.625C234.839 158.646 234.715 158.692 234.562 158.751C234.692 158.876 234.977 159.221 235.125 159.291C235.701 159.566 236.553 158.917 236.711 159.749Z"/>
<path fill="white" fill-opacity="0.97254902" d="M236.711 159.749C236.553 158.917 235.701 159.566 235.125 159.291C234.977 159.221 234.692 158.876 234.562 158.751C234.715 158.692 234.839 158.646 235.002 158.625C235.689 158.538 236.421 158.655 237.125 158.576C237.664 158.515 239.035 158.125 239.501 158.251C239.833 158.341 240.597 158.791 240.911 159.021C239.66 159.608 238.082 159.82 236.711 159.749Z"/>
<path fill="white" fill-opacity="0.95686275" d="M216.23 36.041C216.637 34.2792 217.714 31.7002 217.656 29.9875L218.598 30.625C218.541 32.3553 217.748 34.8404 217.158 36.5C216.912 36.6379 216.825 36.6241 216.55 36.625L216.23 36.041Z"/>
<path fill="white" fill-opacity="0.94901961" d="M219.986 140.488C219.982 140.85 219.812 141.073 219.625 141.373C219.093 140.571 218.912 139.798 218.882 138.852C218.87 138.469 218.732 138.321 218.455 138.068L218.377 138C218.259 135.37 217.769 132.118 218.65 129.595C219.082 130.317 219.006 130.95 218.951 131.754C219.132 132.225 220.068 140.252 219.986 140.488Z"/>
<path fill="white" fill-opacity="0.95686275" d="M216.175 36.2818C216.197 37.1432 216.082 38.2211 216.638 38.9279L216.574 47.5226C216.608 48.7101 217.083 51.0435 216.719 52.0914C216.671 52.2296 216.438 52.4637 216.342 52.5905L216.059 52.4321L215.664 52.956C215.839 52.3613 215.623 51.5985 215.582 50.9759L215.425 46.6352C215.344 43.1867 215.38 39.6533 216.175 36.2818Z"/>
<path fill="white" fill-opacity="0.95294118" d="M212.927 116.038C213.132 116.483 213.35 116.87 213.265 117.375C213.661 117.866 213.56 118.042 213.488 118.67C213.373 119.678 212.899 120.816 212.65 121.75C212.375 122.784 212.672 123.911 212.202 124.942C211.966 125.461 212.112 126.293 212.087 126.873C212.017 128.475 211.936 130.068 211.988 131.673C212.031 132.974 212.252 134.438 211.961 135.711L211.694 135.5C211.396 135.553 211.339 135.732 211.157 135.965C211.45 135.076 211.007 133.231 210.962 132.256C210.872 130.35 210.874 128.372 211.031 126.471C211.192 124.524 211.473 122.468 211.876 120.556C212.175 119.133 213.013 117.477 212.927 116.038Z"/>
<path fill="white" fill-opacity="0.94901961" d="M257.701 102.275C258.588 102.815 258.676 103.346 259.162 104.19C260.324 106.208 261.449 108.505 262.021 110.773C265.21 123.399 262.864 136.745 256.078 147.86C255.209 149.284 253.302 152.173 251.748 152.772C251.216 152.732 250.554 153.451 250.125 153.8L249.912 153.5L250.503 152.641L250.822 152.646L251.531 151.625L251.836 151.603L252.597 150.292L252.873 150.375C252.933 150.07 253.625 149.007 253.86 148.798C254.263 148.441 254.309 147.964 254.636 147.666C255.22 147.133 255.387 146.378 255.554 145.625L255.875 145.438C256.182 144.886 256.376 144.424 256.475 143.796C256.483 143.739 256.474 143.676 256.5 143.625C256.524 143.578 256.818 143.51 256.875 143.459C257.42 142.972 257.247 141.747 257.583 141.251C257.797 140.936 258.014 140.967 258.195 140.5C258.298 140.236 258.462 139.12 258.583 139.001C258.828 138.762 258.937 138.905 259.09 138.486C259.291 137.941 259.248 137.304 259.457 136.75C259.655 136.224 260.077 135.792 260.246 135.25C260.462 134.555 260.305 133.546 260.682 132.941C261.401 131.786 261.449 130.075 261.594 128.751L261.873 128.875C261.857 128.224 261.744 127.355 261.995 126.751C262.272 126.084 262.201 125.234 262.258 124.517C262.472 121.874 262.623 118.769 262.127 116.25C262.059 115.9 261.777 115.639 261.682 115.299L261.627 115.125C261.05 113.935 261.519 112.308 260.681 111.234C260.132 110.529 260.055 109.021 259.877 108.125C259.724 107.975 259.72 107.999 259.501 107.999L258.967 106.354C258.83 105.751 258.351 105.386 258.181 104.812L257.798 103.772C257.724 103.546 257.57 103.503 257.377 103.375C257.377 102.809 257.384 102.741 257.701 102.275Z"/>
</svg>