<svg width="215" height="200" viewBox="0 0 215 200" fill="none" xmlns="http://www.w3.org/2000/svg">
<mask id="mask0_1203_165" style="mask-type:alpha" maskUnits="userSpaceOnUse" x="0" y="-1" width="216" height="202">
<rect x="1" width="214" height="200" rx="6" fill="#FF8F8F" stroke="white" stroke-opacity="0.1"/>
</mask>
<g mask="url(#mask0_1203_165)">
<g opacity="0.2">
<rect x="51.0977" y="127.559" width="70.3934" height="17.7077" rx="8.85383" transform="rotate(-178.275 51.0977 127.559)" fill="white"/>
<rect width="58.4576" height="14.7164" rx="7.35821" transform="matrix(-0.810834 -0.585277 0.844584 -0.535423 49.8092 127.083)" fill="white"/>
<rect width="58.4576" height="16.3721" rx="8.18607" transform="matrix(-0.844584 0.535423 -0.810834 -0.585277 62.371 119.588)" fill="white"/>
</g>
<path d="M23.6248 60.9348C23.6248 59.1892 25.0472 57.7741 26.8018 57.7741H45.7074C47.462 57.7741 48.8845 59.1892 48.8845 60.9348C48.8845 62.6804 47.462 64.0955 45.7074 64.0955H26.8018C25.0472 64.0955 23.6248 62.6804 23.6248 60.9348Z" fill="white"/>
<path d="M21.9057 59.4028C23.1132 58.5895 25.071 58.5895 26.2786 59.4028L39.2761 68.1567C40.4837 68.97 40.4837 70.2886 39.2761 71.1019C38.0686 71.9151 36.1107 71.9151 34.9032 71.1019L21.9057 62.348C20.6981 61.5347 20.6981 60.2161 21.9057 59.4028Z" fill="white"/>
<path d="M22.0998 62.3777C20.7564 61.4729 20.7564 60.0059 22.0998 59.1011L34.6054 50.6786C35.9488 49.7738 38.1269 49.7738 39.4703 50.6786C40.8137 51.5834 40.8137 53.0503 39.4703 53.9551L26.9648 62.3777C25.6213 63.2825 23.4432 63.2825 22.0998 62.3777Z" fill="white"/>
<path d="M66.3776 69.4695C66.3248 71.2143 64.8602 72.5862 63.1063 72.5336L44.2093 71.9675C42.4555 71.9149 41.0765 70.4579 41.1293 68.7131C41.1821 66.9682 42.6467 65.5964 44.4006 65.6489L63.2976 66.2151C65.0514 66.2676 66.4304 67.7247 66.3776 69.4695Z" fill="white"/>
<path d="M68.0495 71.0523C66.8179 71.8291 64.861 71.7705 63.6786 70.9214L50.9518 61.7822C49.7694 60.9331 49.8093 59.6151 51.0409 58.8384C52.2726 58.0616 54.2295 58.1202 55.4119 58.9693L68.1387 68.1085C69.3211 68.9576 69.2812 70.2756 68.0495 71.0523Z" fill="white"/>
<path d="M67.9455 68.073C69.2609 69.0176 69.2165 70.4839 67.8463 71.348L55.0916 79.3923C53.7215 80.2564 51.5443 80.1912 50.2289 79.2466C48.9135 78.302 48.9579 76.8357 50.3281 75.9715L63.0828 67.9273C64.4529 67.0631 66.6301 67.1284 67.9455 68.073Z" fill="white"/>
<path d="M92.312 68.608C92.312 69.52 92.072 70.304 91.592 70.96C91.128 71.616 90.496 72.12 89.696 72.472C88.896 72.824 88.016 73 87.056 73H78.92V55.96H87.704C88.504 55.96 89.192 56.176 89.768 56.608C90.36 57.024 90.808 57.568 91.112 58.24C91.432 58.896 91.592 59.584 91.592 60.304C91.592 61.136 91.376 61.92 90.944 62.656C90.528 63.376 89.928 63.912 89.144 64.264C90.12 64.552 90.888 65.08 91.448 65.848C92.024 66.6 92.312 67.52 92.312 68.608ZM89.552 68.104C89.552 67.624 89.448 67.192 89.24 66.808C89.048 66.408 88.776 66.088 88.424 65.848C88.088 65.592 87.688 65.464 87.224 65.464H81.608V70.672H87.056C87.536 70.672 87.96 70.56 88.328 70.336C88.712 70.096 89.008 69.784 89.216 69.4C89.44 69 89.552 68.568 89.552 68.104ZM81.608 58.288V63.304H86.552C87 63.304 87.4 63.2 87.752 62.992C88.104 62.768 88.384 62.472 88.592 62.104C88.8 61.72 88.904 61.288 88.904 60.808C88.904 60.312 88.808 59.88 88.616 59.512C88.424 59.128 88.16 58.832 87.824 58.624C87.504 58.4 87.128 58.288 86.696 58.288H81.608ZM101.835 62.728C100.811 62.744 99.8993 62.976 99.0993 63.424C98.3153 63.872 97.7553 64.504 97.4193 65.32V73H94.7793V60.448H97.2273V63.256C97.6593 62.392 98.2273 61.704 98.9313 61.192C99.6353 60.664 100.379 60.376 101.163 60.328C101.323 60.328 101.451 60.328 101.547 60.328C101.659 60.328 101.755 60.336 101.835 60.352V62.728ZM103.756 73V60.448H106.396V73H103.756ZM103.756 58.384V55.48H106.396V58.384H103.756ZM108.776 66.736C108.776 65.536 109.016 64.448 109.496 63.472C109.992 62.48 110.664 61.696 111.512 61.12C112.36 60.528 113.336 60.232 114.44 60.232C115.4 60.232 116.264 60.48 117.032 60.976C117.816 61.472 118.424 62.088 118.856 62.824V55.48H121.496V70.024C121.496 70.328 121.552 70.544 121.664 70.672C121.776 70.8 121.96 70.872 122.216 70.888V73C121.72 73.08 121.336 73.12 121.064 73.12C120.568 73.12 120.144 72.976 119.792 72.688C119.456 72.4 119.28 72.056 119.264 71.656L119.24 70.72C118.76 71.52 118.112 72.144 117.296 72.592C116.48 73.024 115.632 73.24 114.752 73.24C113.888 73.24 113.088 73.072 112.352 72.736C111.632 72.4 111 71.928 110.456 71.32C109.928 70.712 109.512 70.016 109.208 69.232C108.92 68.448 108.776 67.616 108.776 66.736ZM118.856 68.488V65.2C118.68 64.688 118.392 64.232 117.992 63.832C117.608 63.416 117.168 63.088 116.672 62.848C116.192 62.608 115.712 62.488 115.232 62.488C114.672 62.488 114.16 62.608 113.696 62.848C113.248 63.088 112.856 63.408 112.52 63.808C112.2 64.208 111.952 64.664 111.776 65.176C111.6 65.688 111.512 66.224 111.512 66.784C111.512 67.36 111.608 67.904 111.8 68.416C111.992 68.912 112.264 69.36 112.616 69.76C112.984 70.144 113.4 70.448 113.864 70.672C114.344 70.88 114.864 70.984 115.424 70.984C115.776 70.984 116.128 70.92 116.48 70.792C116.848 70.664 117.192 70.488 117.512 70.264C117.848 70.04 118.128 69.776 118.352 69.472C118.592 69.168 118.76 68.84 118.856 68.488ZM129.818 73.12C128.97 73.12 128.194 72.952 127.49 72.616C126.786 72.264 126.178 71.792 125.666 71.2C125.17 70.608 124.778 69.928 124.49 69.16C124.218 68.392 124.082 67.584 124.082 66.736C124.082 65.84 124.226 65 124.514 64.216C124.802 63.432 125.202 62.744 125.714 62.152C126.242 61.544 126.858 61.072 127.562 60.736C128.266 60.4 129.05 60.232 129.914 60.232C130.922 60.232 131.802 60.472 132.554 60.952C133.322 61.432 133.954 62.056 134.45 62.824V60.448H136.778V72.64C136.778 73.856 136.482 74.888 135.89 75.736C135.314 76.584 134.522 77.232 133.514 77.68C132.506 78.128 131.37 78.352 130.106 78.352C128.714 78.352 127.562 78.112 126.65 77.632C125.738 77.152 124.962 76.496 124.322 75.664L125.81 74.272C126.29 74.944 126.906 75.456 127.658 75.808C128.426 76.16 129.242 76.336 130.106 76.336C130.826 76.336 131.49 76.2 132.098 75.928C132.722 75.672 133.218 75.264 133.586 74.704C133.954 74.16 134.138 73.472 134.138 72.64V70.72C133.69 71.472 133.074 72.064 132.29 72.496C131.506 72.912 130.682 73.12 129.818 73.12ZM130.682 70.984C131.082 70.984 131.466 70.92 131.834 70.792C132.202 70.648 132.538 70.464 132.842 70.24C133.162 70 133.434 69.736 133.658 69.448C133.882 69.144 134.042 68.824 134.138 68.488V65.2C133.93 64.656 133.634 64.184 133.25 63.784C132.866 63.368 132.434 63.048 131.954 62.824C131.474 62.6 130.986 62.488 130.49 62.488C129.914 62.488 129.394 62.616 128.93 62.872C128.482 63.112 128.098 63.44 127.778 63.856C127.458 64.256 127.21 64.712 127.034 65.224C126.858 65.736 126.77 66.264 126.77 66.808C126.77 67.384 126.866 67.92 127.058 68.416C127.266 68.912 127.546 69.36 127.898 69.76C128.25 70.144 128.666 70.448 129.146 70.672C129.626 70.88 130.138 70.984 130.682 70.984ZM145.631 73.24C144.655 73.24 143.767 73.072 142.967 72.736C142.183 72.384 141.503 71.912 140.927 71.32C140.351 70.712 139.903 70.024 139.583 69.256C139.279 68.472 139.127 67.64 139.127 66.76C139.127 65.576 139.399 64.496 139.943 63.52C140.487 62.528 141.247 61.736 142.223 61.144C143.199 60.536 144.343 60.232 145.655 60.232C146.967 60.232 148.095 60.536 149.039 61.144C149.999 61.736 150.743 62.52 151.271 63.496C151.799 64.472 152.063 65.52 152.063 66.64C152.063 66.832 152.055 67.016 152.039 67.192C152.023 67.352 152.007 67.488 151.991 67.6H141.935C141.983 68.336 142.183 68.984 142.535 69.544C142.903 70.088 143.367 70.52 143.927 70.84C144.487 71.144 145.087 71.296 145.727 71.296C146.431 71.296 147.095 71.12 147.719 70.768C148.359 70.416 148.791 69.952 149.015 69.376L151.271 70.024C150.999 70.632 150.583 71.184 150.023 71.68C149.479 72.16 148.831 72.544 148.079 72.832C147.327 73.104 146.511 73.24 145.631 73.24ZM141.863 65.848H149.447C149.399 65.128 149.191 64.496 148.823 63.952C148.471 63.392 148.015 62.96 147.455 62.656C146.911 62.336 146.303 62.176 145.631 62.176C144.975 62.176 144.367 62.336 143.807 62.656C143.263 62.96 142.815 63.392 142.463 63.952C142.111 64.496 141.911 65.128 141.863 65.848Z" fill="#F7F7F7"/>
</g>
</svg>
