<svg width="215" height="200" viewBox="0 0 215 200" fill="none" xmlns="http://www.w3.org/2000/svg">
<mask id="mask0_1203_166" style="mask-type:alpha" maskUnits="userSpaceOnUse" x="-1" y="-1" width="216" height="202">
<rect width="214" height="200" rx="6" fill="#D0A2F7" stroke="white" stroke-opacity="0.1"/>
</mask>
<g mask="url(#mask0_1203_166)">
<g opacity="0.2">
<path d="M161.241 33.8058C161.241 30.0471 164.316 27 168.108 27H232.892C236.684 27 239.759 30.0471 239.759 33.8058V139.296C239.759 143.055 236.684 146.102 232.892 146.102H168.108C164.316 146.102 161.241 143.055 161.241 139.296V33.8058Z" fill="white"/>
<path d="M173.145 46.7368C173.145 42.9781 176.219 39.931 180.012 39.931H220.988C224.781 39.931 227.855 42.9781 227.855 46.7368V60.8022C227.855 64.5609 224.781 67.608 220.988 67.608H180.012C176.219 67.608 173.145 64.5609 173.145 60.8022V46.7368Z" fill="#D0A2F7"/>
<path d="M153 141.791C153 138.033 156.075 134.985 159.867 134.985H241.133C244.925 134.985 248 138.033 248 141.791V145.194C248 148.953 244.925 152 241.133 152H159.867C156.075 152 153 148.953 153 145.194V141.791Z" fill="white"/>
<path d="M194.205 95.9656L200.708 82.8237L204.45 75.1707C204.69 74.6798 205.439 74.949 205.306 75.4782L202.119 88.1489C202.045 88.4441 202.279 88.7267 202.586 88.7118L211.334 88.2878C211.718 88.2692 211.953 88.6996 211.727 89.0078L191.846 116.107C191.515 116.559 190.813 116.133 191.068 115.635L202.024 94.2036C202.22 93.8208 201.82 93.4077 201.426 93.5857L194.806 96.5781C194.415 96.755 194.016 96.3482 194.205 95.9656Z" fill="#D0A2F7"/>
</g>
<path d="M72.1827 83.1198C71.0627 83.1198 70.0147 82.8878 69.0387 82.4238C68.0627 81.9598 67.2067 81.3198 66.4707 80.5038C65.7507 79.6878 65.1827 78.7598 64.7667 77.7198C64.3667 76.6798 64.1667 75.5758 64.1667 74.4078C64.1667 73.2398 64.3667 72.1438 64.7667 71.1198C65.1827 70.0958 65.7507 69.1838 66.4707 68.3838C67.2067 67.5838 68.0627 66.9598 69.0387 66.5118C70.0307 66.0638 71.1107 65.8398 72.2787 65.8398C73.8947 65.8398 75.2547 66.1838 76.3587 66.8718C77.4787 67.5438 78.3187 68.4398 78.8787 69.5598L76.8147 71.0478C76.3667 70.1198 75.7267 69.4238 74.8947 68.9598C74.0787 68.4958 73.1827 68.2638 72.2067 68.2638C71.4067 68.2638 70.6787 68.4318 70.0227 68.7678C69.3667 69.1038 68.7987 69.5678 68.3187 70.1598C67.8547 70.7358 67.5027 71.3998 67.2627 72.1518C67.0227 72.8878 66.9027 73.6638 66.9027 74.4798C66.9027 75.3438 67.0387 76.1518 67.3107 76.9038C67.5827 77.6558 67.9667 78.3198 68.4627 78.8958C68.9587 79.4558 69.5427 79.8958 70.2147 80.2158C70.8867 80.5358 71.6147 80.6958 72.3987 80.6958C73.3267 80.6958 74.2067 80.4638 75.0387 79.9998C75.8867 79.5198 76.6787 78.8078 77.4147 77.8638V80.5998C75.9267 82.2798 74.1827 83.1198 72.1827 83.1198ZM77.1507 76.3758H73.5747V74.3838H79.4067V82.9998H77.1507V76.3758ZM81.2247 79.3278C81.2247 78.5278 81.4487 77.8318 81.8967 77.2398C82.3607 76.6318 82.9927 76.1678 83.7927 75.8478C84.5927 75.5118 85.5207 75.3438 86.5767 75.3438C87.1367 75.3438 87.7047 75.3838 88.2807 75.4638C88.8727 75.5438 89.3927 75.6718 89.8407 75.8478V75.0558C89.8407 74.1758 89.5767 73.4878 89.0487 72.9918C88.5207 72.4958 87.7607 72.2478 86.7687 72.2478C86.0647 72.2478 85.4007 72.3758 84.7767 72.6318C84.1527 72.8718 83.4887 73.2158 82.7847 73.6638L81.8967 71.8878C82.7287 71.3278 83.5607 70.9118 84.3927 70.6398C85.2407 70.3678 86.1287 70.2318 87.0567 70.2318C88.7367 70.2318 90.0567 70.6798 91.0167 71.5758C91.9927 72.4558 92.4807 73.7118 92.4807 75.3438V80.0238C92.4807 80.3278 92.5287 80.5438 92.6247 80.6718C92.7367 80.7998 92.9207 80.8718 93.1767 80.8878V82.9998C92.9367 83.0478 92.7207 83.0798 92.5287 83.0958C92.3367 83.1118 92.1767 83.1198 92.0487 83.1198C91.4887 83.1198 91.0647 82.9838 90.7767 82.7118C90.4887 82.4398 90.3207 82.1198 90.2727 81.7518L90.2007 81.0318C89.6567 81.7358 88.9607 82.2798 88.1127 82.6638C87.2647 83.0478 86.4087 83.2398 85.5447 83.2398C84.7127 83.2398 83.9687 83.0718 83.3127 82.7358C82.6567 82.3838 82.1447 81.9118 81.7767 81.3198C81.4087 80.7278 81.2247 80.0638 81.2247 79.3278ZM89.2167 80.0958C89.4087 79.8878 89.5607 79.6798 89.6727 79.4718C89.7847 79.2638 89.8407 79.0798 89.8407 78.9198V77.4798C89.3927 77.3038 88.9207 77.1758 88.4247 77.0958C87.9287 76.9998 87.4407 76.9518 86.9607 76.9518C86.0007 76.9518 85.2167 77.1438 84.6087 77.5278C84.0167 77.9118 83.7207 78.4398 83.7207 79.1118C83.7207 79.4798 83.8167 79.8318 84.0087 80.1678C84.2167 80.5038 84.5047 80.7758 84.8727 80.9838C85.2567 81.1918 85.7287 81.2958 86.2887 81.2958C86.8647 81.2958 87.4167 81.1838 87.9447 80.9598C88.4727 80.7358 88.8967 80.4478 89.2167 80.0958ZM100.148 83.2398C99.0916 83.2398 98.0916 83.0718 97.1476 82.7358C96.2036 82.3838 95.3956 81.8638 94.7236 81.1758L95.7076 79.3998C96.4276 80.0398 97.1476 80.5038 97.8676 80.7918C98.6036 81.0798 99.3316 81.2238 100.052 81.2238C100.788 81.2238 101.388 81.0878 101.852 80.8158C102.316 80.5278 102.548 80.1118 102.548 79.5678C102.548 79.1678 102.428 78.8718 102.188 78.6798C101.948 78.4878 101.596 78.3198 101.132 78.1758C100.684 78.0318 100.14 77.8718 99.4996 77.6958C98.6036 77.4238 97.8516 77.1438 97.2436 76.8558C96.6356 76.5518 96.1796 76.1838 95.8756 75.7518C95.5716 75.3198 95.4196 74.7678 95.4196 74.0958C95.4196 73.2798 95.6276 72.5838 96.0436 72.0078C96.4596 71.4318 97.0356 70.9918 97.7716 70.6878C98.5236 70.3838 99.3876 70.2318 100.364 70.2318C101.276 70.2318 102.116 70.3758 102.884 70.6638C103.668 70.9358 104.356 71.3678 104.948 71.9598L103.82 73.7118C103.26 73.1998 102.684 72.8238 102.092 72.5838C101.516 72.3438 100.892 72.2238 100.22 72.2238C99.8356 72.2238 99.4676 72.2718 99.1156 72.3678C98.7636 72.4478 98.4676 72.6078 98.2276 72.8478C98.0036 73.0718 97.8916 73.3918 97.8916 73.8078C97.8916 74.1438 97.9876 74.4158 98.1796 74.6238C98.3716 74.8318 98.6596 75.0078 99.0436 75.1518C99.4276 75.2958 99.8996 75.4558 100.46 75.6318C101.436 75.9198 102.268 76.2078 102.956 76.4958C103.644 76.7678 104.172 77.1278 104.54 77.5758C104.924 78.0078 105.116 78.6078 105.116 79.3758C105.116 80.5918 104.66 81.5438 103.748 82.2318C102.852 82.9038 101.652 83.2398 100.148 83.2398ZM113.738 82.9998V65.9598H121.154C121.922 65.9598 122.626 66.1198 123.266 66.4398C123.906 66.7598 124.458 67.1838 124.922 67.7118C125.402 68.2398 125.77 68.8318 126.026 69.4878C126.298 70.1438 126.434 70.8158 126.434 71.5038C126.434 72.2558 126.298 72.9758 126.026 73.6638C125.754 74.3518 125.362 74.9438 124.85 75.4398C124.354 75.9358 123.77 76.2958 123.098 76.5198L127.106 82.9998H124.082L120.386 77.0718H116.426V82.9998H113.738ZM116.426 74.6958H121.13C121.626 74.6958 122.066 74.5518 122.45 74.2638C122.834 73.9758 123.138 73.5918 123.362 73.1118C123.586 72.6158 123.698 72.0798 123.698 71.5038C123.698 70.9118 123.57 70.3838 123.314 69.9198C123.058 69.4398 122.722 69.0558 122.306 68.7678C121.906 68.4798 121.466 68.3358 120.986 68.3358H116.426V74.6958ZM134.559 83.2398C133.583 83.2398 132.695 83.0718 131.895 82.7358C131.111 82.3838 130.431 81.9118 129.855 81.3198C129.279 80.7118 128.831 80.0238 128.511 79.2558C128.207 78.4718 128.055 77.6398 128.055 76.7598C128.055 75.5758 128.327 74.4958 128.871 73.5198C129.415 72.5278 130.175 71.7358 131.151 71.1438C132.127 70.5358 133.271 70.2318 134.583 70.2318C135.895 70.2318 137.023 70.5358 137.967 71.1438C138.927 71.7358 139.671 72.5198 140.199 73.4958C140.727 74.4718 140.991 75.5198 140.991 76.6398C140.991 76.8318 140.983 77.0158 140.967 77.1918C140.951 77.3518 140.935 77.4878 140.919 77.5998H130.863C130.911 78.3358 131.111 78.9838 131.463 79.5438C131.831 80.0878 132.295 80.5198 132.855 80.8398C133.415 81.1438 134.015 81.2958 134.655 81.2958C135.359 81.2958 136.023 81.1198 136.647 80.7678C137.287 80.4158 137.719 79.9518 137.943 79.3758L140.199 80.0238C139.927 80.6318 139.511 81.1838 138.951 81.6798C138.407 82.1598 137.759 82.5438 137.007 82.8318C136.255 83.1038 135.439 83.2398 134.559 83.2398ZM130.791 75.8478H138.375C138.327 75.1278 138.119 74.4958 137.751 73.9518C137.399 73.3918 136.943 72.9598 136.383 72.6558C135.839 72.3358 135.231 72.1758 134.559 72.1758C133.903 72.1758 133.295 72.3358 132.735 72.6558C132.191 72.9598 131.743 73.3918 131.391 73.9518C131.039 74.4958 130.839 75.1278 130.791 75.8478ZM143.747 82.9998V72.7998H142.067V70.7598H143.747V70.2558C143.747 69.2318 143.907 68.3438 144.227 67.5918C144.563 66.8398 145.027 66.2638 145.619 65.8638C146.227 65.4478 146.939 65.2398 147.755 65.2398C148.267 65.2398 148.771 65.3118 149.267 65.4558C149.763 65.5838 150.235 65.7678 150.683 66.0078L150.107 67.9758C149.867 67.8158 149.579 67.6958 149.243 67.6158C148.923 67.5198 148.611 67.4718 148.307 67.4718C147.699 67.4718 147.227 67.7038 146.891 68.1678C146.555 68.6318 146.387 69.3038 146.387 70.1838V70.7598H149.603V72.7998H146.387V82.9998H143.747ZM151.462 78.1278V70.4478H154.102V77.5998C154.102 78.7198 154.302 79.5678 154.702 80.1438C155.118 80.7038 155.718 80.9838 156.502 80.9838C156.998 80.9838 157.478 80.8798 157.942 80.6718C158.422 80.4638 158.854 80.1598 159.238 79.7598C159.638 79.3438 159.958 78.8478 160.198 78.2718V70.4478H162.838V80.0238C162.838 80.3278 162.894 80.5438 163.006 80.6718C163.118 80.7998 163.302 80.8718 163.558 80.8878V82.9998C163.286 83.0478 163.062 83.0798 162.886 83.0958C162.71 83.1118 162.542 83.1198 162.382 83.1198C161.902 83.1198 161.502 82.9918 161.182 82.7358C160.862 82.4638 160.678 82.1198 160.63 81.7038L160.582 80.4558C160.022 81.3678 159.294 82.0638 158.398 82.5438C157.502 83.0078 156.518 83.2398 155.446 83.2398C154.134 83.2398 153.142 82.8078 152.47 81.9438C151.798 81.0798 151.462 79.8078 151.462 78.1278ZM171.895 83.2398C170.919 83.2398 170.031 83.0718 169.231 82.7358C168.447 82.3838 167.767 81.9118 167.191 81.3198C166.615 80.7118 166.167 80.0238 165.847 79.2558C165.543 78.4718 165.391 77.6398 165.391 76.7598C165.391 75.5758 165.663 74.4958 166.207 73.5198C166.751 72.5278 167.511 71.7358 168.487 71.1438C169.463 70.5358 170.607 70.2318 171.919 70.2318C173.231 70.2318 174.359 70.5358 175.303 71.1438C176.263 71.7358 177.007 72.5198 177.535 73.4958C178.063 74.4718 178.327 75.5198 178.327 76.6398C178.327 76.8318 178.319 77.0158 178.303 77.1918C178.287 77.3518 178.271 77.4878 178.255 77.5998H168.199C168.247 78.3358 168.447 78.9838 168.799 79.5438C169.167 80.0878 169.631 80.5198 170.191 80.8398C170.751 81.1438 171.351 81.2958 171.991 81.2958C172.695 81.2958 173.359 81.1198 173.983 80.7678C174.623 80.4158 175.055 79.9518 175.279 79.3758L177.535 80.0238C177.263 80.6318 176.847 81.1838 176.287 81.6798C175.743 82.1598 175.095 82.5438 174.343 82.8318C173.591 83.1038 172.775 83.2398 171.895 83.2398ZM168.127 75.8478H175.711C175.663 75.1278 175.455 74.4958 175.087 73.9518C174.735 73.3918 174.279 72.9598 173.719 72.6558C173.175 72.3358 172.567 72.1758 171.895 72.1758C171.239 72.1758 170.631 72.3358 170.071 72.6558C169.527 72.9598 169.079 73.3918 168.727 73.9518C168.375 74.4958 168.175 75.1278 168.127 75.8478ZM180.504 65.4798H183.144V79.3758C183.144 80.0158 183.24 80.4238 183.432 80.5998C183.624 80.7758 183.864 80.8638 184.152 80.8638C184.472 80.8638 184.768 80.8318 185.04 80.7678C185.328 80.7038 185.576 80.6238 185.784 80.5278L186.168 82.6158C185.784 82.7758 185.328 82.9118 184.8 83.0238C184.272 83.1358 183.8 83.1918 183.384 83.1918C182.488 83.1918 181.784 82.9438 181.272 82.4478C180.76 81.9358 180.504 81.2318 180.504 80.3358V65.4798Z" fill="#F7F7F7"/>
<path d="M24.2521 54.4501C24.2521 53.0969 25.3525 52 26.71 52H49.8955C51.2529 52 52.3533 53.0969 52.3533 54.4501V92.4265C52.3533 93.7796 51.2529 94.8766 49.8955 94.8766H26.71C25.3525 94.8766 24.2521 93.7796 24.2521 92.4265V54.4501Z" fill="white"/>
<path d="M28.5124 59.1053C28.5124 57.7521 29.6128 56.6552 30.9702 56.6552H45.6353C46.9927 56.6552 48.0931 57.7521 48.0931 59.1053V64.1688C48.0931 65.5219 46.9927 66.6189 45.6353 66.6189H30.9702C29.6128 66.6189 28.5124 65.5219 28.5124 64.1688V59.1053Z" fill="#D0A2F7"/>
<path d="M21.3027 93.3249C21.3027 91.9717 22.4031 90.8748 23.7606 90.8748H52.8449C54.2023 90.8748 55.3027 91.9717 55.3027 93.3249V94.5499C55.3027 95.9031 54.2023 97 52.8449 97H23.7606C22.4031 97 21.3027 95.9031 21.3027 94.5499V93.3249Z" fill="white"/>
<path d="M36.0499 76.8276L38.3772 72.0965L39.7163 69.3414C39.8022 69.1647 40.0704 69.2616 40.0227 69.4522L38.8822 74.0136C38.8556 74.1199 38.9394 74.2216 39.0492 74.2163L42.1803 74.0636C42.3177 74.0569 42.4017 74.2119 42.3208 74.3228L35.2057 84.0785C35.0871 84.2412 34.8358 84.088 34.927 83.9087L38.8482 76.1933C38.9183 76.0555 38.775 75.9068 38.6341 75.9709L36.265 77.0481C36.125 77.1118 35.9821 76.9653 36.0499 76.8276Z" fill="#D0A2F7"/>
</g>
</svg>
